Coordinates
version=1
nRows=12
nColumns=24
inDegrees=yes

Units are S.I. units (second, meters, Newtons, ...)
Angles are in degrees.

endheader
time	pelvis_tilt	pelvis_list	pelvis_rotation	pelvis_tx	pelvis_ty	pelvis_tz	hip_flexion_r	hip_adduction_r	hip_rotation_r	knee_angle_r	ankle_angle_r	subtalar_angle_r	mtp_angle_r	hip_flexion_l	hip_adduction_l	hip_rotation_l	knee_angle_l	ankle_angle_l	subtalar_angle_l	mtp_angle_l	lumbar_extension	lumbar_bending	lumbar_rotation
      3.36000000	     61.72208597	     -1.33262512	     -0.81050020	      0.65183607	      1.01586603	     -0.20736704	      3.28201102	     -5.08642604	     11.43967166	    -36.64767009	    -16.15144566	     22.74009320	     60.38270406	     -4.84600271	    -10.51721286	      4.20835205	    -54.09966551	    -11.74719611	     33.00797660	     33.46165955	      0.00000000	      0.00000000	      0.00000000
      3.37000000	     61.79566581	     -1.32502533	     -0.77994763	      0.65184969	      1.01591931	     -0.20739160	      3.06162516	     -4.94599199	     11.12259834	    -37.36243656	    -16.05584256	     22.97059531	     60.78731447	     -4.92595861	    -10.47938181	      4.34221114	    -54.09918358	    -11.73791320	     32.98876129	     33.44948700	      0.00000000	      0.00000000	      0.00000000
      3.38000000	     61.87571981	     -1.31461555	     -0.75094014	      0.65187953	      1.01599256	     -0.20739092	      2.81789698	     -4.81113964	     10.79383897	    -38.15076550	    -15.96172803	     23.22232622	     61.22584900	     -5.02168573	    -10.44019283	      4.47979516	    -54.09155704	    -11.73029150	     32.97496737	     33.43942455	      0.00000000	      0.00000000	      0.00000000
      3.39000000	     61.95935691	     -1.29995777	     -0.72555639	      0.65192139	      1.01608164	     -0.20736435	      2.56019934	     -4.68548214	     10.45249638	    -39.01456214	    -15.87125205	     23.49199010	     61.69984611	     -5.13046719	    -10.40081474	      4.61072314	    -54.07538150	    -11.72668052	     32.96412240	     33.43266315	      0.00000000	      0.00000000	      0.00000000
      3.40000000	     62.04256559	     -1.27986634	     -0.70573815	      0.65197199	      1.01616894	     -0.20731679	      2.29948032	     -4.57280404	     10.09777739	    -39.95572475	    -15.78644476	     23.77563919	     62.21153399	     -5.24732880	    -10.36188888	      4.72620112	    -54.05089205	    -11.72885866	     32.95178053	     33.43023894	      0.00000000	      0.00000000	      0.00000000
      3.41000000	     62.12088947	     -1.25375962	     -0.69259884	      0.65203558	      1.01624325	     -0.20725618	      2.04719828	     -4.47736101	      9.72955377	    -40.97551665	    -15.70930554	     24.06920077	     62.76326029	     -5.36602301	    -10.32375455	      4.81948448	    -54.02001496	    -11.73750246	     32.93189253	     33.43280299	      0.00000000	      0.00000000	      0.00000000
      3.42000000	     62.18996888	     -1.22186662	     -0.68606522	      0.65211628	      1.01630896	     -0.20719250	      1.81404161	     -4.40377041	      9.34868952	    -42.07423182	    -15.64195205	     24.36892767	     63.35684256	     -5.48001173	    -10.28670302	      4.88618882	    -53.98609644	    -11.75173327	     32.89758162	     33.44039854	      0.00000000	      0.00000000	      0.00000000
      3.43000000	     62.24596120	     -1.18516619	     -0.68493297	      0.65221128	      1.01637602	     -0.20713627	      1.60866364	     -4.35625399	      8.95718516	    -43.25106323	    -15.58673636	     24.67167687	     63.99288161	     -5.58321773	    -10.25112211	      4.92445027	    -53.95317495	    -11.76886642	     32.84234448	     33.45228124	      0.00000000	      0.00000000	      0.00000000
      3.44000000	     62.28603507	     -1.14512730	     -0.68712007	      0.65232032	      1.01644427	     -0.20709078	      1.43696950	     -4.33749472	      8.55829860	    -44.50392178	    -15.54620904	     24.97497939	     64.67010696	     -5.67064182	    -10.21759050	      4.93497553	    -53.92492394	    -11.78450420	     32.76161869	     33.46682294	      0.00000000	      0.00000000	      0.00000000
      3.45000000	     62.30901519	     -1.10335619	     -0.69000921	      0.65244646	      1.01649907	     -0.20704996	      1.30233748	     -4.34760609	      8.15670497	    -45.82901854	    -15.52281327	     25.27693171	     65.38484948	     -5.73899960	    -10.18703560	      4.92096991	    -53.90364734	    -11.79309315	     32.65456007	     33.48154360	      0.00000000	      0.00000000	      0.00000000
      3.46000000	     62.31604757	     -1.06120833	     -0.69086844	      0.65258418	      1.01653056	     -0.20701239	      1.20650780	     -4.38370186	      7.75852238	    -47.22027801	    -15.51827860	     25.57598327	     66.13073376	     -5.78728255	    -10.16089689	      4.88780685	    -53.88978520	    -11.78899543	     32.52577077	     33.49331370	      0.00000000	      0.00000000	      0.00000000
      3.47000000	     62.31054988	     -1.01969661	     -0.68733148	      0.65271893	      1.01655216	     -0.20698859	      1.14998340	     -4.44052173	      7.37094541	    -48.66907475	    -15.53284668	     25.87069411	     66.89865682	     -5.81696342	    -10.14103354	      4.84227701	    -53.88223489	    -11.76798628	     32.38662409	     33.49875561	      0.00000000	      0.00000000	      0.00000000
